<svg width="566" height="60" viewBox="0 0 566 60" fill="none" xmlns="http://www.w3.org/2000/svg">
<path d="M150.736 34.8115C68.8539 46.3529 0 34.8115 0 34.8115C37.9579 51.0059 129.68 62.7903 180.419 59.3574C229.891 56.0102 353.148 22.2142 398.097 16.9599C467.853 8.80588 496.101 19.5058 496.101 19.5058C493.453 13.0058 439.654 -2.00735 358.519 0.224098C277.385 2.45554 221.976 24.77 150.736 34.8115Z" fill="#64AAD8"/>
<path d="M376.848 40.0226C331.891 46.776 294.812 38.6404 294.812 38.6404C314.917 49.5181 364.434 58.0214 392.165 56.2546C419.205 54.5319 487.44 33.6878 512.083 30.6836C550.326 26.0215 565.334 33.2376 565.334 33.2376C564.115 28.987 535.348 18.7321 491.114 19.439C446.881 20.1459 415.963 34.1468 376.848 40.0226Z" fill="#64AAD8"/>
</svg>
